<svg width="30" height="30" viewBox="0 0 111 111" fill="none" xmlns="http://www.w3.org/2000/svg">
<path d="M45.4688 1C57.2626 1 68.5736 5.68491 76.9131 14.0244C85.2526 22.3639 89.9375 33.6749 89.9375 45.4688C89.9375 57.2626 85.2526 68.5736 76.9131 76.9131C68.5736 85.2526 57.2626 89.9375 45.4688 89.9375C33.6749 89.9375 22.3639 85.2526 14.0244 76.9131C5.68491 68.5736 1 57.2626 1 45.4688C1 33.6749 5.68491 22.3639 14.0244 14.0244C22.3639 5.68491 33.6749 1 45.4688 1ZM45.4688 9.6875C35.979 9.6875 26.8783 13.4577 20.168 20.168C13.4577 26.8783 9.6875 35.979 9.6875 45.4688C9.6875 54.9585 13.4577 64.0592 20.168 70.7695C26.8783 77.4798 35.979 81.25 45.4688 81.25C50.1676 81.25 54.8209 80.3245 59.1621 78.5264C63.5031 76.7282 67.447 74.092 70.7695 70.7695C74.092 67.447 76.7282 63.5031 78.5264 59.1621C80.3245 54.8209 81.25 50.1676 81.25 45.4688C81.25 40.7699 80.3245 36.1166 78.5264 31.7754C76.7282 27.4344 74.092 23.4905 70.7695 20.168C67.447 16.8455 63.5031 14.2093 59.1621 12.4111C54.8209 10.613 50.1676 9.6875 45.4688 9.6875Z" fill="white" stroke="black" stroke-width="2"/>
<path d="M81.1218 70.366C81.4338 70.598 81.7273 70.854 82.0007 71.1306L107.748 96.8777L108.01 97.1541C109.287 98.565 109.998 100.403 109.998 102.315C109.997 104.354 109.186 106.309 107.744 107.751C106.301 109.192 104.346 110.002 102.306 110.002C100.267 110.001 98.3122 109.19 96.8708 107.748L71.1169 81.9939C71.0828 81.9592 71.0506 81.9226 71.0173 81.8875L70.1755 82.5056V77.4695L71.3854 79.1189C74.5493 76.6786 77.3554 73.8046 79.7175 70.5779L80.3132 69.7654L81.1218 70.366Z" fill="white" stroke="black" stroke-width="2"/>
<path d="M45.4688 21.0625C46.6208 21.0625 47.7254 21.5204 48.54 22.335C49.3546 23.1496 49.8125 24.2542 49.8125 25.4062V41.125H65.5312C66.6833 41.125 67.7879 41.5829 68.6025 42.3975C69.4172 43.2121 69.875 44.3167 69.875 45.4688C69.875 46.6208 69.4172 47.7254 68.6025 48.54C67.7879 49.3546 66.6833 49.8125 65.5312 49.8125H49.8125V65.5312C49.8125 66.6833 49.3546 67.7879 48.54 68.6025C47.7254 69.4172 46.6208 69.875 45.4688 69.875C44.3167 69.875 43.2121 69.4172 42.3975 68.6025C41.5829 67.7879 41.125 66.6833 41.125 65.5312V49.8125H25.4062C24.2542 49.8125 23.1496 49.3546 22.335 48.54C21.5204 47.7254 21.0625 46.6208 21.0625 45.4688C21.0625 44.3167 21.5204 43.2121 22.335 42.3975C23.1496 41.5829 24.2542 41.125 25.4062 41.125H41.125V25.4062C41.125 24.2542 41.5829 23.1496 42.3975 22.335C43.2121 21.5204 44.3167 21.0625 45.4688 21.0625Z" fill="white" stroke="black" stroke-width="2"/>
<path d="M71.1335 75.2913C70.8325 75.2913 70.1044 75.4915 69.3768 75.9269C69.1735 76.0188 68.9733 76.0789 68.8201 76.1198C68.6669 76.1608 68.5667 76.1808 68.3422 76.2015" stroke="white" stroke-width="2" stroke-linecap="round"/>
<path d="M69.8592 74.5631C69.8592 74.543 69.8592 74.523 69.8292 74.5227C69.7391 74.5424 69.6171 74.5831 69.4961 74.6334C69.4351 74.6638 69.375 74.7038 69.2524 74.8665" stroke="white" stroke-width="2" stroke-linecap="round"/>
<path d="M71.6796 75.9587C71.4982 76.0595 71.2561 76.1808 71.013 76.3626C70.7872 76.5314 70.4672 76.585 70.2042 76.7873C69.9196 77.0062 69.5777 77.0097 69.304 77.1717C68.9502 77.3538 68.6462 77.5158 68.5252 77.5965C68.4642 77.6371 68.4041 77.6772 68.2816 77.7791" stroke="white" stroke-width="2" stroke-linecap="round"/>
<line x1="73.1927" y1="75.6361" x2="65.0677" y2="82.3235" stroke="white"/>
<line x1="68.2266" y1="79.5947" x2="69.6016" y2="81.626" stroke="white"/>
<path d="M75.6844 75.4576C75.7245 75.4576 75.8052 75.4777 75.9363 75.468C76.23 75.0153 76.412 74.3666 76.5331 74.1746C76.594 74.1027 76.6541 74.0826 76.716 74.062" stroke="white" stroke-width="2" stroke-linecap="round"/>
<path d="M76.4126 75.0935C76.7543 74.7731 77.2415 73.9624 77.4233 73.598C77.5662 73.3114 77.7257 72.7707 77.919 72.2534C78.1011 71.7659 78.0704 71.051 78.172 70.6551C78.1953 70.5644 78.2124 70.4636 78.2427 70.4621C78.953 70.4266 78.1942 72.6214 77.7898 73.3917C77.5817 73.7881 77.3234 74.0006 77.2024 74.1017C77.0983 74.1885 76.8993 74.1833 76.6472 74.1332C76.0604 74.0167 75.9478 73.517 75.8771 73.3049C75.8465 73.213 75.8265 73.1529 75.9263 73.122C76.2334 73.0268 76.5534 73.071 76.7148 73.0407C76.7954 73.0255 76.8762 73.0304 76.8975 73.1305C77.0169 73.6935 76.6359 73.9393 76.4135 74.112C76.1936 74.2827 75.7876 74.284 75.4933 74.4454C75.1355 74.6417 74.9575 75.091 74.7649 75.3859C74.5912 75.6518 74.1893 75.7403 73.6739 75.9824C73.3446 76.1371 73.0765 76.3665 72.8234 76.5088C72.4534 76.7169 72.1262 77.0947 71.7619 77.3781C71.3882 77.6686 70.9927 78.1262 70.72 78.3693C70.468 78.5938 70.3046 78.7937 70.0425 79.0267C69.7749 79.2646 69.3556 79.2597 69.0913 79.3608C68.9816 79.4027 69.0097 79.7033 69.0398 79.9964C69.0517 80.1126 69.1299 80.1493 69.2009 80.1699C69.4856 80.2527 69.7767 80.2512 70.0504 80.1305C70.3488 79.9988 70.5061 79.8277 70.7379 79.6854C71.1087 79.4578 71.6954 79.4624 72.0835 79.2713C72.376 79.1272 72.5073 78.6554 72.841 78.4014C73.3855 77.9872 73.9017 78.0668 74.2876 77.9864C74.6997 77.9005 74.875 77.4612 75.1975 77.0067C75.3589 76.7794 75.5625 76.6717 75.6035 76.5707C74.9205 76.4891 73.5049 76.5692 73.0461 76.6608C72.9551 76.6711 72.835 76.6711 72.5898 76.7318" stroke="white" stroke-width="2" stroke-linecap="round"/>
<path d="M81.5097 67.7512C81.2276 67.9933 80.6639 68.3956 80.3071 68.6205C80.0708 68.7693 79.6323 69.2245 79.2755 69.5203C79.2245 69.571 79.1845 69.6311 79.0337 69.8022C78.8829 69.9733 78.6226 70.2536 78.233 70.6032" stroke="white" stroke-width="2" stroke-linecap="round"/>
<path d="M79.203 73.6415C79.203 73.6315 79.213 73.6113 79.2282 73.556C79.2561 73.4543 79.2734 73.1784 79.3366 72.8098C79.3839 72.534 79.3549 72.3076 79.3196 72.1083C79.2882 71.9309 79.2435 71.7663 79.2384 71.6199C79.3136 71.4173 79.4808 71.25 79.5389 71.2045C79.5619 71.1841 79.5719 71.1691 79.6126 71.1233" stroke="white" stroke-width="2" stroke-linecap="round"/>
<path d="M80.4318 68.9692C80.4318 68.9642 80.4318 68.9592 80.4393 68.9541C80.4468 68.949 80.4618 68.944 80.477 68.9464C80.5436 68.957 80.5932 69.0147 80.6591 69.0298C80.6902 69.0369 80.7299 69.045 80.7603 69.05C80.7779 69.0529 80.6901 69.0754 80.6218 69.0854C80.5843 69.0909 80.6086 69.1661 80.5987 69.2268C80.5878 69.2938 80.5179 69.3481 80.4749 69.4089C80.4278 69.4754 80.4066 69.5453 80.3612 69.5935C80.3144 69.643 80.2752 69.7122 80.2347 69.773C80.1908 69.8388 80.179 69.9246 80.1311 69.9728C80.0821 70.022 80.0628 70.0915 80.0097 70.1522C79.9613 70.2076 79.9111 70.2583 79.8605 70.3191C79.8142 70.3748 79.7998 70.4555 79.7745 70.5163C79.7454 70.5864 79.6887 70.6476 79.6154 70.7085C79.5826 70.7237 79.537 70.7489 79.474 70.7968C79.441 70.8246 79.406 70.8597 79.3699 70.8958" stroke="white" stroke-width="2" stroke-linecap="round"/>
<path d="M69.6004 80.0583C69.5904 80.0583 69.5852 80.1234 69.5927 80.2245C69.5955 80.2612 69.6153 80.2656 69.633 80.2707C69.7062 80.2916 69.757 80.3011 69.7673 80.3011C69.777 80.3011 69.7175 80.3011 69.6944 80.3086C69.6713 80.3161 69.6662 80.3311 69.6612 80.3463C69.6561 80.3616 69.6511 80.3766 69.6308 80.3921" stroke="white" stroke-width="2" stroke-linecap="round"/>
<path d="M69.6308 80.3921C69.6258 80.3921 69.6208 80.3921 69.6257 80.3971C69.6306 80.4021 69.6456 80.4121 69.6914 80.4224" stroke="white" stroke-width="2" stroke-linecap="round"/>
</svg>
